# xmcd
#
# Track frame offsets: 
#        150
#        12540
#        39729
#        49171
#        59823
#        76072
#        90758
#        116639
#        129017
#        141318
#        157457
#        170825
#        183938
#        194683
#        202960
#
# Disc length: 2883 seconds
#
# Revision: 1
# Processed by: cddbd v1.5.2PL0 Copyright (c) Steve Scherf et al.
# Submitted via: ExactAudioCopy v0.99pb4
#
DISCID=d70b410f
DTITLE=Pena Branca - Pena Branca Canta Xavantinho
DYEAR=2001
DGENRE=Caipira
TTITLE0=O Grande Sertão
TTITLE1=Suíte Do Trem
TTITLE2=Primeira Cantiga
TTITLE3=Restinga, Sertão E Viola
TTITLE4=A Mata Gemeu
TTITLE5=Casa De Barro
TTITLE6=Encontro De Bandeiras
TTITLE7=Oração De Camponês
TTITLE8=Velho Catireiro
TTITLE9=O Aboiador
TTITLE10=Meu Céu
TTITLE11=Mulheres Da Terra
TTITLE12=Cantiga Do Arco Íris
TTITLE13=Estrada
TTITLE14=Farra De Peão
EXTD=
EXTT0=
EXTT1=
EXTT2=
EXTT3=
EXTT4=
EXTT5=
EXTT6=
EXTT7=
EXTT8=
EXTT9=
EXTT10=
EXTT11=
EXTT12=
EXTT13=
EXTT14=
PLAYORDER=
